HIERARCHY
ROOT Hips
{
  OFFSET -3.75099 91.0728 33.7423
  CHANNELS 6 Xposition Yposition Zposition Zrotation Xrotation Yrotation
  JOINT ToSpine
  {
    OFFSET -2.69724 7.43032 -0.144315
    CHANNELS 3 Zrotation Xrotation Yrotation
    JOINT Spine
    {
      OFFSET -0.0310711 10.7595 1.96963
      CHANNELS 3 Zrotation Xrotation Yrotation
      JOINT Spine1
      {
        OFFSET 13.1342 3.43533 0.764692
        CHANNELS 3 Zrotation Xrotation Yrotation
        JOINT Neck
        {
          OFFSET 29.8703 7.82586 -0.130764
          CHANNELS 3 Zrotation Xrotation Yrotation
          JOINT Head
          {
            OFFSET 9.52751 0.295786 -0.907742
            CHANNELS 3 Zrotation Xrotation Yrotation
            End Site
            {
              OFFSET 16.4037 0.713936 2.7358
            }
          }
        }
        JOINT LeftShoulder
        {
          OFFSET 27.5574 4.95586 2.47156
          CHANNELS 3 Zrotation Xrotation Yrotation
          JOINT LeftArm
          {
            OFFSET 1.20734 -0.998971 20.1238
            CHANNELS 3 Zrotation Xrotation Yrotation
            JOINT LeftForeArm
            {
              OFFSET 26.8049 -0.0536703 -0.155908
              CHANNELS 3 Zrotation Xrotation Yrotation
              JOINT LeftHand
              {
                OFFSET 26.6817 0 0.320147
                CHANNELS 3 Zrotation Xrotation Yrotation
                End Site
                {
                  OFFSET 18.6119 0 0.382219
                }
              }
            }
          }
        }
        JOINT RightShoulder
        {
          OFFSET 27.5927 4.71444 -2.65209
          CHANNELS 3 Zrotation Xrotation Yrotation
          JOINT RightArm
          {
            OFFSET 2.83739 -1.17114 -18.7564
            CHANNELS 3 Zrotation Xrotation Yrotation
            JOINT RightForeArm
            {
              OFFSET 28.839 -0.0548439 1.22491
              CHANNELS 3 Zrotation Xrotation Yrotation
              JOINT RightHand
              {
                OFFSET 26.5114 0 -0.101894
                CHANNELS 3 Zrotation Xrotation Yrotation
                End Site
                {
                  OFFSET 18.2168 0 0
                }
              }
            }
          }
        }
      }
    }
  }
  JOINT LeftUpLeg
  {
    OFFSET -4.76168 -1.9167 -10.2353
    CHANNELS 3 Zrotation Xrotation Yrotation
    JOINT LeftLeg
    {
      OFFSET 2.55951 -42.0585 -8.02213
      CHANNELS 3 Zrotation Xrotation Yrotation
      JOINT LeftFoot
      {
        OFFSET 3.16357 -42.5282 -3.95426
        CHANNELS 3 Zrotation Xrotation Yrotation
        JOINT LeftToeBase
        {
          OFFSET 0.346054 -6.02161 12.8035
          CHANNELS 3 Zrotation Xrotation Yrotation
          End Site
          {
            OFFSET 0.134235 -1.35082 5.13018
          }
        }
      }
    }
  }
  JOINT RightUpLeg
  {
    OFFSET -4.94151 -1.41743 10.6446
    CHANNELS 3 Zrotation Xrotation Yrotation
    JOINT RightLeg
    {
      OFFSET -2.56294 -42.0364 -7.94377
      CHANNELS 3 Zrotation Xrotation Yrotation
      JOINT RightFoot
      {
        OFFSET -3.0952 -42.555 -4.02241
        CHANNELS 3 Zrotation Xrotation Yrotation
        JOINT RightToeBase
        {
          OFFSET -0.0828122 -6.13587 12.8035
          CHANNELS 3 Zrotation Xrotation Yrotation
          End Site
          {
            OFFSET -0.131328 -1.35082 5.13018
          }
        }
      }
    }
  }
}
MOTION
Frames:	6
Frame Time:	0.0333333
-17.1597 94.215 -41.7883 68.4409 -35.1549 -10.1648 -70.1915 0 88.8779 68.8578 71.0264 16.9194 6.72485 20.6924 4.06024 -108.251 25.9695 151.473 -175.665 74.472 -147.105 0.546977 -15.3463 -19.1343 -63.2312 42.1197 -148.457 30.7471 -2.20679 -93.003 0.420957 0.000575423 0.35866 -1.82615 7.85864 37.5112 -134.631 -15.5579 85.6055 13.9621 3.25903 102.573 0.58676 0.00033108 0.0646653 -49.1106 8.85058 94.1851 -2.60611 43.8288 -3.57859 0.72764 -16.2828 -1.38187 4.16667 -10.3064 7.06785 -44.3201 -11.2778 78.9082 3.1456 25.2928 -4.52666 -19.015 11.2884 3.58403 2.80557 -22.25 0.697556 
-17.1517 94.1319 -41.8635 68.5991 -35.2726 -10.0321 -70.1915 0 88.8779 68.5185 71.2253 17.0889 6.89715 20.8731 4.18847 -108.034 25.8237 151.566 -177.191 74.2548 -145.354 0.538856 -15.4216 -19.1505 -62.3353 41.9114 -148.543 30.4098 -2.02317 -92.7387 0.420957 0.000575423 0.35866 -1.7991 7.55157 38.1715 -134.425 -15.5571 85.267 13.7494 3.29492 102.895 0.58676 0.00033108 0.0646653 -49.1672 9.0333 94.3644 -2.61932 44.0422 -3.46768 0.410896 -16.7809 -1.42653 3.93776 -9.78334 6.40603 -44.1048 -11.2994 78.7409 2.94744 25.9142 -4.28927 -18.3105 10.9787 3.39851 2.75764 -21.8763 0.851121 
-17.1575 94.039 -41.9655 68.6428 -35.2059 -9.91975 -70.1915 0 88.8779 67.9008 71.1984 17.7152 7.33994 20.8844 4.22153 -108.971 26.2714 152.476 179.514 73.8997 -142.545 0.549658 -15.2959 -19.194 -61.7556 41.5527 -148.223 31.488 -1.79534 -92.2366 0.420957 0.000575423 0.35866 -1.84738 7.66024 38.4388 -134.42 -15.6596 84.2705 14.7678 3.54757 102.891 0.58676 0.00033108 0.0646653 -48.9854 9.21816 94.6013 -2.63251 44.3629 -3.22356 0.102371 -17.5972 -1.499 3.59581 -8.91299 5.19277 -43.6664 -11.5723 78.246 2.95354 26.9 -2.84995 -18.5433 11.2876 3.47628 2.73431 -22.2907 -1.35919 
-17.1639 93.9938 -42.0433 68.8351 -35.1726 -9.96827 -70.1915 0 88.8779 68.5135 71.1532 16.9982 7.35461 20.8278 3.88385 -109.586 26.55 153.351 178.364 73.6098 -141.656 0.626094 -14.7212 -18.6789 -61.3825 41.7451 -148.193 31.8334 -1.86237 -92.3019 0.420957 0.000575423 0.35866 -1.91895 7.8187 38.8442 -133.787 -15.9492 83.7503 14.7083 3.57358 103.032 0.58676 0.00033108 0.0646653 -49.0671 8.9128 94.4254 -2.71845 44.504 -3.7727 0.16903 -17.1543 -1.4612 3.85369 -9.68411 6.75067 -43.5559 -11.9078 77.9162 2.90385 27.2942 -2.23618 -19.2788 11.577 3.66798 2.80715 -23.1336 -1.95827 
-17.1251 93.9233 -42.1091 68.9287 -35.1147 -10.02 -70.1915 0 88.8779 68.3385 71.2259 17.1573 7.26872 20.9614 3.72036 -109.287 26.5377 153.207 178.308 73.6846 -141.076 0.614907 -14.9023 -18.5551 -61.7756 41.5573 -147.676 31.6283 -1.90647 -92.3975 0.420957 0.000575423 0.35866 -1.9945 7.83062 39.7636 -133.579 -14.9789 84.1322 14.589 3.63302 103.342 0.58676 0.00033108 0.0646653 -49.04 8.65838 94.328 -2.76575 44.7317 -3.94079 0.356334 -17.4024 -1.4768 3.67066 -9.47921 7.4288 -43.4936 -12.1397 77.7786 2.81688 27.5467 -2.09415 -20.2338 11.4169 3.87275 2.85608 -23.5065 -1.84736 
-17.0743 93.9594 -42.146 69.0183 -34.9663 -9.98543 -70.1915 0 88.8779 66.878 71.2864 18.2967 7.56488 21.0268 4.26829 -109.768 27.0098 153.215 178.509 74.0445 -141.303 0.597143 -15.0156 -18.7216 -62.5149 41.3554 -147.578 30.8645 -1.99979 -92.6395 0.420957 0.000575423 0.35866 -1.94166 7.73624 39.4093 -133.591 -14.7176 84.1765 14.583 3.69407 103.558 0.58676 0.00033108 0.0646653 -49.0761 8.53202 94.3129 -2.76519 44.6959 -4.00855 0.589097 -17.1184 -1.44846 3.88028 -9.84041 7.34981 -43.5094 -12.2396 77.8318 2.76544 27.6751 -2.02438 -19.1447 11.3916 3.62171 2.78381 -23.0994 -2.4045 
